<mxfile host="app.diagrams.net" modified="2023-12-10T18:27:17.331Z" agent="Mozilla/5.0 (Windows NT 10.0; Win64; x64) AppleWebKit/537.36 (KHTML, like Gecko) Chrome/120.0.0.0 Safari/537.36" etag="U_eWjmuYDJNamzyinXqO" version="22.1.7" type="device">
  <diagram name="Page-1" id="j_l07m6UR3eiMceVMP7g">
    <mxGraphModel dx="1750" dy="890" grid="0" gridSize="10" guides="1" tooltips="1" connect="1" arrows="1" fold="1" page="1" pageScale="1" pageWidth="850" pageHeight="1100" math="0" shadow="0">
      <root>
        <mxCell id="0" />
        <mxCell id="1" parent="0" />
        <mxCell id="EVUtLocAtqzbS-v4X07H-1" value="" style="rounded=0;whiteSpace=wrap;html=1;dashed=1;" parent="1" vertex="1">
          <mxGeometry x="82" y="40" width="506" height="677" as="geometry" />
        </mxCell>
        <mxCell id="EVUtLocAtqzbS-v4X07H-2" value="Airline Management System" style="text;html=1;strokeColor=none;fillColor=none;align=center;verticalAlign=middle;whiteSpace=wrap;rounded=0;" parent="1" vertex="1">
          <mxGeometry x="263" y="44" width="144" height="30" as="geometry" />
        </mxCell>
        <mxCell id="EVUtLocAtqzbS-v4X07H-9" value="" style="rounded=0;whiteSpace=wrap;html=1;" parent="1" vertex="1">
          <mxGeometry x="730" y="232" width="120" height="60" as="geometry" />
        </mxCell>
        <mxCell id="EVUtLocAtqzbS-v4X07H-10" value="" style="rounded=0;whiteSpace=wrap;html=1;" parent="1" vertex="1">
          <mxGeometry x="660" y="119" width="120" height="60" as="geometry" />
        </mxCell>
        <mxCell id="EVUtLocAtqzbS-v4X07H-11" value="External Databases" style="text;html=1;strokeColor=none;fillColor=none;align=center;verticalAlign=middle;whiteSpace=wrap;rounded=0;" parent="1" vertex="1">
          <mxGeometry x="690" y="134" width="60" height="30" as="geometry" />
        </mxCell>
        <mxCell id="EVUtLocAtqzbS-v4X07H-12" value="Payment Gateways" style="text;html=1;strokeColor=none;fillColor=none;align=center;verticalAlign=middle;whiteSpace=wrap;rounded=0;" parent="1" vertex="1">
          <mxGeometry x="760" y="247" width="60" height="30" as="geometry" />
        </mxCell>
        <mxCell id="EVUtLocAtqzbS-v4X07H-15" value="User" style="shape=umlActor;verticalLabelPosition=bottom;verticalAlign=top;html=1;outlineConnect=0;" parent="1" vertex="1">
          <mxGeometry x="15" y="182" width="30" height="60" as="geometry" />
        </mxCell>
        <mxCell id="EVUtLocAtqzbS-v4X07H-26" value="System Boundary" style="text;html=1;strokeColor=none;fillColor=none;align=center;verticalAlign=middle;whiteSpace=wrap;rounded=0;" parent="1" vertex="1">
          <mxGeometry x="588" y="687" width="61" height="30" as="geometry" />
        </mxCell>
        <mxCell id="EVUtLocAtqzbS-v4X07H-27" value="" style="endArrow=classic;html=1;rounded=0;entryX=0;entryY=0.5;entryDx=0;entryDy=0;exitX=1;exitY=0;exitDx=0;exitDy=0;" parent="1" source="ILS-NVzQD1oU6h5f8vQo-1" target="EVUtLocAtqzbS-v4X07H-10" edge="1">
          <mxGeometry width="50" height="50" relative="1" as="geometry">
            <mxPoint x="606" y="149" as="sourcePoint" />
            <mxPoint x="423" y="229" as="targetPoint" />
          </mxGeometry>
        </mxCell>
        <mxCell id="EVUtLocAtqzbS-v4X07H-29" value="" style="endArrow=classic;html=1;rounded=0;entryX=0;entryY=0.25;entryDx=0;entryDy=0;exitX=1;exitY=0.5;exitDx=0;exitDy=0;" parent="1" source="ILS-NVzQD1oU6h5f8vQo-5" target="EVUtLocAtqzbS-v4X07H-9" edge="1">
          <mxGeometry width="50" height="50" relative="1" as="geometry">
            <mxPoint x="566" y="215" as="sourcePoint" />
            <mxPoint x="730" y="265" as="targetPoint" />
          </mxGeometry>
        </mxCell>
        <mxCell id="ILS-NVzQD1oU6h5f8vQo-1" value="" style="ellipse;whiteSpace=wrap;html=1;" vertex="1" parent="1">
          <mxGeometry x="105" y="76" width="120" height="80" as="geometry" />
        </mxCell>
        <mxCell id="ILS-NVzQD1oU6h5f8vQo-2" value="" style="ellipse;whiteSpace=wrap;html=1;" vertex="1" parent="1">
          <mxGeometry x="225" y="102" width="120" height="80" as="geometry" />
        </mxCell>
        <mxCell id="ILS-NVzQD1oU6h5f8vQo-3" value="" style="ellipse;whiteSpace=wrap;html=1;" vertex="1" parent="1">
          <mxGeometry x="263" y="265" width="120" height="80" as="geometry" />
        </mxCell>
        <mxCell id="ILS-NVzQD1oU6h5f8vQo-4" value="" style="ellipse;whiteSpace=wrap;html=1;" vertex="1" parent="1">
          <mxGeometry x="317" y="345" width="120" height="80" as="geometry" />
        </mxCell>
        <mxCell id="ILS-NVzQD1oU6h5f8vQo-5" value="" style="ellipse;whiteSpace=wrap;html=1;" vertex="1" parent="1">
          <mxGeometry x="324" y="157" width="120" height="80" as="geometry" />
        </mxCell>
        <mxCell id="ILS-NVzQD1oU6h5f8vQo-6" value="" style="ellipse;whiteSpace=wrap;html=1;" vertex="1" parent="1">
          <mxGeometry x="395" y="433" width="120" height="80" as="geometry" />
        </mxCell>
        <mxCell id="ILS-NVzQD1oU6h5f8vQo-7" value="" style="ellipse;whiteSpace=wrap;html=1;" vertex="1" parent="1">
          <mxGeometry x="181" y="202" width="120" height="80" as="geometry" />
        </mxCell>
        <mxCell id="ILS-NVzQD1oU6h5f8vQo-8" value="" style="ellipse;whiteSpace=wrap;html=1;" vertex="1" parent="1">
          <mxGeometry x="448" y="530" width="120" height="80" as="geometry" />
        </mxCell>
        <mxCell id="ILS-NVzQD1oU6h5f8vQo-9" value="" style="ellipse;whiteSpace=wrap;html=1;" vertex="1" parent="1">
          <mxGeometry x="225" y="500" width="120" height="80" as="geometry" />
        </mxCell>
        <mxCell id="ILS-NVzQD1oU6h5f8vQo-10" value="" style="ellipse;whiteSpace=wrap;html=1;" vertex="1" parent="1">
          <mxGeometry x="162" y="589" width="120" height="80" as="geometry" />
        </mxCell>
        <mxCell id="ILS-NVzQD1oU6h5f8vQo-11" value="" style="ellipse;whiteSpace=wrap;html=1;" vertex="1" parent="1">
          <mxGeometry x="114" y="441" width="120" height="80" as="geometry" />
        </mxCell>
        <mxCell id="ILS-NVzQD1oU6h5f8vQo-12" value="" style="ellipse;whiteSpace=wrap;html=1;" vertex="1" parent="1">
          <mxGeometry x="451" y="621" width="120" height="80" as="geometry" />
        </mxCell>
        <mxCell id="ILS-NVzQD1oU6h5f8vQo-13" value="Authentication &amp;amp; Registration" style="text;html=1;strokeColor=none;fillColor=none;align=center;verticalAlign=middle;whiteSpace=wrap;rounded=0;" vertex="1" parent="1">
          <mxGeometry x="135" y="101" width="60" height="30" as="geometry" />
        </mxCell>
        <mxCell id="ILS-NVzQD1oU6h5f8vQo-14" value="Flight Search" style="text;html=1;strokeColor=none;fillColor=none;align=center;verticalAlign=middle;whiteSpace=wrap;rounded=0;" vertex="1" parent="1">
          <mxGeometry x="255" y="127" width="60" height="30" as="geometry" />
        </mxCell>
        <mxCell id="ILS-NVzQD1oU6h5f8vQo-16" value="Booking and Seat Selection" style="text;html=1;strokeColor=none;fillColor=none;align=center;verticalAlign=middle;whiteSpace=wrap;rounded=0;" vertex="1" parent="1">
          <mxGeometry x="293" y="290" width="60" height="30" as="geometry" />
        </mxCell>
        <mxCell id="ILS-NVzQD1oU6h5f8vQo-17" value="Ticket Purchase" style="text;html=1;strokeColor=none;fillColor=none;align=center;verticalAlign=middle;whiteSpace=wrap;rounded=0;" vertex="1" parent="1">
          <mxGeometry x="354" y="179" width="60" height="30" as="geometry" />
        </mxCell>
        <mxCell id="ILS-NVzQD1oU6h5f8vQo-18" value="Ticket Modification" style="text;html=1;strokeColor=none;fillColor=none;align=center;verticalAlign=middle;whiteSpace=wrap;rounded=0;" vertex="1" parent="1">
          <mxGeometry x="425" y="458" width="60" height="30" as="geometry" />
        </mxCell>
        <mxCell id="ILS-NVzQD1oU6h5f8vQo-19" value="Cancellation &amp;amp; Refund" style="text;html=1;strokeColor=none;fillColor=none;align=center;verticalAlign=middle;whiteSpace=wrap;rounded=0;" vertex="1" parent="1">
          <mxGeometry x="211" y="227" width="60" height="30" as="geometry" />
        </mxCell>
        <mxCell id="ILS-NVzQD1oU6h5f8vQo-20" value="Real-Time Flight Status" style="text;html=1;strokeColor=none;fillColor=none;align=center;verticalAlign=middle;whiteSpace=wrap;rounded=0;" vertex="1" parent="1">
          <mxGeometry x="350" y="370" width="60" height="30" as="geometry" />
        </mxCell>
        <mxCell id="ILS-NVzQD1oU6h5f8vQo-21" value="Notifications System" style="text;html=1;strokeColor=none;fillColor=none;align=center;verticalAlign=middle;whiteSpace=wrap;rounded=0;" vertex="1" parent="1">
          <mxGeometry x="478" y="555" width="60" height="30" as="geometry" />
        </mxCell>
        <mxCell id="ILS-NVzQD1oU6h5f8vQo-22" value="Customer Support and Feedback" style="text;html=1;strokeColor=none;fillColor=none;align=center;verticalAlign=middle;whiteSpace=wrap;rounded=0;" vertex="1" parent="1">
          <mxGeometry x="478" y="646" width="60" height="30" as="geometry" />
        </mxCell>
        <mxCell id="ILS-NVzQD1oU6h5f8vQo-24" value="Flight Management" style="text;html=1;strokeColor=none;fillColor=none;align=center;verticalAlign=middle;whiteSpace=wrap;rounded=0;" vertex="1" parent="1">
          <mxGeometry x="192" y="614" width="60" height="30" as="geometry" />
        </mxCell>
        <mxCell id="ILS-NVzQD1oU6h5f8vQo-25" value="Reporting &amp;amp; Analytics" style="text;html=1;strokeColor=none;fillColor=none;align=center;verticalAlign=middle;whiteSpace=wrap;rounded=0;" vertex="1" parent="1">
          <mxGeometry x="255" y="525" width="60" height="30" as="geometry" />
        </mxCell>
        <mxCell id="ILS-NVzQD1oU6h5f8vQo-26" value="Customer Rewards &amp;amp; Promotions" style="text;html=1;strokeColor=none;fillColor=none;align=center;verticalAlign=middle;whiteSpace=wrap;rounded=0;" vertex="1" parent="1">
          <mxGeometry x="144" y="466" width="60" height="30" as="geometry" />
        </mxCell>
        <mxCell id="ILS-NVzQD1oU6h5f8vQo-29" value="" style="endArrow=classic;html=1;rounded=0;entryX=0;entryY=0.5;entryDx=0;entryDy=0;exitX=1;exitY=0.3333333333333333;exitDx=0;exitDy=0;exitPerimeter=0;" edge="1" parent="1" source="EVUtLocAtqzbS-v4X07H-15" target="ILS-NVzQD1oU6h5f8vQo-1">
          <mxGeometry width="50" height="50" relative="1" as="geometry">
            <mxPoint x="76" y="196" as="sourcePoint" />
            <mxPoint x="126" y="146" as="targetPoint" />
          </mxGeometry>
        </mxCell>
        <mxCell id="ILS-NVzQD1oU6h5f8vQo-30" value="" style="endArrow=classic;html=1;rounded=0;exitX=1;exitY=0.3333333333333333;exitDx=0;exitDy=0;exitPerimeter=0;entryX=0;entryY=1;entryDx=0;entryDy=0;" edge="1" parent="1" source="EVUtLocAtqzbS-v4X07H-15" target="ILS-NVzQD1oU6h5f8vQo-2">
          <mxGeometry width="50" height="50" relative="1" as="geometry">
            <mxPoint x="233" y="163" as="sourcePoint" />
            <mxPoint x="283" y="113" as="targetPoint" />
            <Array as="points" />
          </mxGeometry>
        </mxCell>
        <mxCell id="ILS-NVzQD1oU6h5f8vQo-32" value="" style="endArrow=classic;html=1;rounded=0;exitX=1;exitY=0.3333333333333333;exitDx=0;exitDy=0;exitPerimeter=0;entryX=0;entryY=0.5;entryDx=0;entryDy=0;" edge="1" parent="1" source="EVUtLocAtqzbS-v4X07H-15" target="ILS-NVzQD1oU6h5f8vQo-3">
          <mxGeometry width="50" height="50" relative="1" as="geometry">
            <mxPoint x="397" y="168" as="sourcePoint" />
            <mxPoint x="447" y="118" as="targetPoint" />
            <Array as="points" />
          </mxGeometry>
        </mxCell>
        <mxCell id="ILS-NVzQD1oU6h5f8vQo-33" value="" style="endArrow=classic;html=1;rounded=0;entryX=0;entryY=0.5;entryDx=0;entryDy=0;exitX=1;exitY=0.3333333333333333;exitDx=0;exitDy=0;exitPerimeter=0;" edge="1" parent="1" source="EVUtLocAtqzbS-v4X07H-15" target="ILS-NVzQD1oU6h5f8vQo-6">
          <mxGeometry width="50" height="50" relative="1" as="geometry">
            <mxPoint x="54" y="273" as="sourcePoint" />
            <mxPoint x="104" y="223" as="targetPoint" />
          </mxGeometry>
        </mxCell>
        <mxCell id="ILS-NVzQD1oU6h5f8vQo-34" value="" style="endArrow=classic;html=1;rounded=0;entryX=0;entryY=0.5;entryDx=0;entryDy=0;exitX=1;exitY=0.3333333333333333;exitDx=0;exitDy=0;exitPerimeter=0;" edge="1" parent="1" source="EVUtLocAtqzbS-v4X07H-15" target="ILS-NVzQD1oU6h5f8vQo-7">
          <mxGeometry width="50" height="50" relative="1" as="geometry">
            <mxPoint x="238" y="268" as="sourcePoint" />
            <mxPoint x="288" y="218" as="targetPoint" />
            <Array as="points" />
          </mxGeometry>
        </mxCell>
        <mxCell id="ILS-NVzQD1oU6h5f8vQo-35" value="" style="endArrow=classic;html=1;rounded=0;entryX=0;entryY=0.5;entryDx=0;entryDy=0;exitX=1;exitY=0.3333333333333333;exitDx=0;exitDy=0;exitPerimeter=0;" edge="1" parent="1" source="EVUtLocAtqzbS-v4X07H-15" target="ILS-NVzQD1oU6h5f8vQo-5">
          <mxGeometry width="50" height="50" relative="1" as="geometry">
            <mxPoint x="397" y="274" as="sourcePoint" />
            <mxPoint x="447" y="224" as="targetPoint" />
            <Array as="points" />
          </mxGeometry>
        </mxCell>
        <mxCell id="ILS-NVzQD1oU6h5f8vQo-37" value="" style="endArrow=classic;html=1;rounded=0;entryX=0;entryY=0.5;entryDx=0;entryDy=0;exitX=1;exitY=0.3333333333333333;exitDx=0;exitDy=0;exitPerimeter=0;" edge="1" parent="1" source="EVUtLocAtqzbS-v4X07H-15" target="ILS-NVzQD1oU6h5f8vQo-8">
          <mxGeometry width="50" height="50" relative="1" as="geometry">
            <mxPoint x="55" y="403" as="sourcePoint" />
            <mxPoint x="105" y="353" as="targetPoint" />
          </mxGeometry>
        </mxCell>
        <mxCell id="ILS-NVzQD1oU6h5f8vQo-38" value="" style="endArrow=classic;html=1;rounded=0;entryX=0;entryY=0;entryDx=0;entryDy=0;exitX=1;exitY=0.3333333333333333;exitDx=0;exitDy=0;exitPerimeter=0;" edge="1" parent="1" source="EVUtLocAtqzbS-v4X07H-15" target="ILS-NVzQD1oU6h5f8vQo-12">
          <mxGeometry width="50" height="50" relative="1" as="geometry">
            <mxPoint x="240" y="401" as="sourcePoint" />
            <mxPoint x="290" y="351" as="targetPoint" />
            <Array as="points">
              <mxPoint x="138" y="295" />
            </Array>
          </mxGeometry>
        </mxCell>
        <mxCell id="ILS-NVzQD1oU6h5f8vQo-39" value="" style="endArrow=classic;html=1;rounded=0;entryX=0;entryY=0.5;entryDx=0;entryDy=0;exitX=1;exitY=0.3333333333333333;exitDx=0;exitDy=0;exitPerimeter=0;" edge="1" parent="1" source="EVUtLocAtqzbS-v4X07H-15" target="ILS-NVzQD1oU6h5f8vQo-4">
          <mxGeometry width="50" height="50" relative="1" as="geometry">
            <mxPoint x="398" y="399" as="sourcePoint" />
            <mxPoint x="448" y="349" as="targetPoint" />
            <Array as="points" />
          </mxGeometry>
        </mxCell>
        <mxCell id="ILS-NVzQD1oU6h5f8vQo-40" value="Admin" style="shape=umlActor;verticalLabelPosition=bottom;verticalAlign=top;html=1;outlineConnect=0;" vertex="1" parent="1">
          <mxGeometry x="15" y="510" width="30" height="60" as="geometry" />
        </mxCell>
        <mxCell id="ILS-NVzQD1oU6h5f8vQo-41" value="" style="endArrow=classic;html=1;rounded=0;exitX=1;exitY=0.3333333333333333;exitDx=0;exitDy=0;exitPerimeter=0;entryX=0;entryY=0.5;entryDx=0;entryDy=0;" edge="1" parent="1" source="ILS-NVzQD1oU6h5f8vQo-40" target="ILS-NVzQD1oU6h5f8vQo-11">
          <mxGeometry width="50" height="50" relative="1" as="geometry">
            <mxPoint x="66" y="530" as="sourcePoint" />
            <mxPoint x="116" y="480" as="targetPoint" />
          </mxGeometry>
        </mxCell>
        <mxCell id="ILS-NVzQD1oU6h5f8vQo-42" value="" style="endArrow=classic;html=1;rounded=0;exitX=1;exitY=0.3333333333333333;exitDx=0;exitDy=0;exitPerimeter=0;entryX=0;entryY=0.5;entryDx=0;entryDy=0;" edge="1" parent="1" source="ILS-NVzQD1oU6h5f8vQo-40" target="ILS-NVzQD1oU6h5f8vQo-9">
          <mxGeometry width="50" height="50" relative="1" as="geometry">
            <mxPoint x="176" y="596" as="sourcePoint" />
            <mxPoint x="226" y="546" as="targetPoint" />
          </mxGeometry>
        </mxCell>
        <mxCell id="ILS-NVzQD1oU6h5f8vQo-43" value="" style="endArrow=classic;html=1;rounded=0;exitX=1;exitY=0.3333333333333333;exitDx=0;exitDy=0;exitPerimeter=0;entryX=0;entryY=0.5;entryDx=0;entryDy=0;" edge="1" parent="1" source="ILS-NVzQD1oU6h5f8vQo-40" target="ILS-NVzQD1oU6h5f8vQo-10">
          <mxGeometry width="50" height="50" relative="1" as="geometry">
            <mxPoint x="112" y="678" as="sourcePoint" />
            <mxPoint x="162" y="628" as="targetPoint" />
          </mxGeometry>
        </mxCell>
        <mxCell id="ILS-NVzQD1oU6h5f8vQo-44" value="" style="endArrow=classic;html=1;rounded=0;exitX=1;exitY=0.5;exitDx=0;exitDy=0;entryX=0;entryY=0.75;entryDx=0;entryDy=0;" edge="1" parent="1" source="ILS-NVzQD1oU6h5f8vQo-7" target="EVUtLocAtqzbS-v4X07H-9">
          <mxGeometry width="50" height="50" relative="1" as="geometry">
            <mxPoint x="608" y="313" as="sourcePoint" />
            <mxPoint x="658" y="263" as="targetPoint" />
          </mxGeometry>
        </mxCell>
        <mxCell id="ILS-NVzQD1oU6h5f8vQo-46" value="" style="endArrow=classic;html=1;rounded=0;exitX=0.5;exitY=0;exitDx=0;exitDy=0;entryX=0.5;entryY=1;entryDx=0;entryDy=0;" edge="1" parent="1" source="EVUtLocAtqzbS-v4X07H-9" target="EVUtLocAtqzbS-v4X07H-10">
          <mxGeometry width="50" height="50" relative="1" as="geometry">
            <mxPoint x="684" y="227" as="sourcePoint" />
            <mxPoint x="734" y="177" as="targetPoint" />
          </mxGeometry>
        </mxCell>
        <mxCell id="ILS-NVzQD1oU6h5f8vQo-47" value="" style="endArrow=classic;html=1;rounded=0;exitX=1;exitY=0.5;exitDx=0;exitDy=0;entryX=0;entryY=1;entryDx=0;entryDy=0;" edge="1" parent="1" source="ILS-NVzQD1oU6h5f8vQo-6" target="EVUtLocAtqzbS-v4X07H-10">
          <mxGeometry width="50" height="50" relative="1" as="geometry">
            <mxPoint x="513" y="456" as="sourcePoint" />
            <mxPoint x="563" y="406" as="targetPoint" />
          </mxGeometry>
        </mxCell>
        <mxCell id="ILS-NVzQD1oU6h5f8vQo-48" value="" style="endArrow=classic;html=1;rounded=0;exitX=1;exitY=0.5;exitDx=0;exitDy=0;entryX=0;entryY=0;entryDx=0;entryDy=0;" edge="1" parent="1" source="ILS-NVzQD1oU6h5f8vQo-2" target="EVUtLocAtqzbS-v4X07H-10">
          <mxGeometry width="50" height="50" relative="1" as="geometry">
            <mxPoint x="470" y="123" as="sourcePoint" />
            <mxPoint x="520" y="73" as="targetPoint" />
          </mxGeometry>
        </mxCell>
        <mxCell id="ILS-NVzQD1oU6h5f8vQo-52" value="" style="rounded=0;whiteSpace=wrap;html=1;" vertex="1" parent="1">
          <mxGeometry x="82" y="777" width="120" height="60" as="geometry" />
        </mxCell>
        <mxCell id="ILS-NVzQD1oU6h5f8vQo-53" value="External Databases" style="text;html=1;strokeColor=none;fillColor=none;align=center;verticalAlign=middle;whiteSpace=wrap;rounded=0;" vertex="1" parent="1">
          <mxGeometry x="113" y="792" width="60" height="30" as="geometry" />
        </mxCell>
        <mxCell id="ILS-NVzQD1oU6h5f8vQo-58" value="" style="endArrow=classic;html=1;rounded=0;entryX=0;entryY=0;entryDx=0;entryDy=0;exitX=0.5;exitY=1;exitDx=0;exitDy=0;" edge="1" parent="1" source="ILS-NVzQD1oU6h5f8vQo-11" target="ILS-NVzQD1oU6h5f8vQo-52">
          <mxGeometry width="50" height="50" relative="1" as="geometry">
            <mxPoint x="10" y="790" as="sourcePoint" />
            <mxPoint x="60" y="740" as="targetPoint" />
          </mxGeometry>
        </mxCell>
        <mxCell id="ILS-NVzQD1oU6h5f8vQo-59" value="" style="endArrow=classic;html=1;rounded=0;entryX=0.5;entryY=0;entryDx=0;entryDy=0;exitX=0.5;exitY=1;exitDx=0;exitDy=0;" edge="1" parent="1" source="ILS-NVzQD1oU6h5f8vQo-10" target="ILS-NVzQD1oU6h5f8vQo-52">
          <mxGeometry width="50" height="50" relative="1" as="geometry">
            <mxPoint x="17" y="779" as="sourcePoint" />
            <mxPoint x="67" y="729" as="targetPoint" />
          </mxGeometry>
        </mxCell>
        <mxCell id="ILS-NVzQD1oU6h5f8vQo-61" value="" style="endArrow=classic;html=1;rounded=0;entryX=1;entryY=0.5;entryDx=0;entryDy=0;exitX=1;exitY=1;exitDx=0;exitDy=0;" edge="1" parent="1" source="ILS-NVzQD1oU6h5f8vQo-9" target="ILS-NVzQD1oU6h5f8vQo-52">
          <mxGeometry width="50" height="50" relative="1" as="geometry">
            <mxPoint x="268" y="815" as="sourcePoint" />
            <mxPoint x="318" y="765" as="targetPoint" />
          </mxGeometry>
        </mxCell>
        <mxCell id="ILS-NVzQD1oU6h5f8vQo-62" value="" style="endArrow=classic;html=1;rounded=0;exitX=1;exitY=0;exitDx=0;exitDy=0;entryX=0;entryY=0.75;entryDx=0;entryDy=0;" edge="1" parent="1" source="ILS-NVzQD1oU6h5f8vQo-4" target="EVUtLocAtqzbS-v4X07H-10">
          <mxGeometry width="50" height="50" relative="1" as="geometry">
            <mxPoint x="426" y="359" as="sourcePoint" />
            <mxPoint x="476" y="309" as="targetPoint" />
          </mxGeometry>
        </mxCell>
        <mxCell id="ILS-NVzQD1oU6h5f8vQo-63" value="" style="endArrow=classic;html=1;rounded=0;entryX=0.139;entryY=0.983;entryDx=0;entryDy=0;entryPerimeter=0;exitX=1;exitY=0;exitDx=0;exitDy=0;" edge="1" parent="1" source="ILS-NVzQD1oU6h5f8vQo-8" target="EVUtLocAtqzbS-v4X07H-10">
          <mxGeometry width="50" height="50" relative="1" as="geometry">
            <mxPoint x="561" y="466" as="sourcePoint" />
            <mxPoint x="611" y="416" as="targetPoint" />
          </mxGeometry>
        </mxCell>
        <mxCell id="ILS-NVzQD1oU6h5f8vQo-64" value="" style="endArrow=classic;html=1;rounded=0;entryX=0.25;entryY=1;entryDx=0;entryDy=0;exitX=1;exitY=0.5;exitDx=0;exitDy=0;" edge="1" parent="1" source="ILS-NVzQD1oU6h5f8vQo-12" target="EVUtLocAtqzbS-v4X07H-10">
          <mxGeometry width="50" height="50" relative="1" as="geometry">
            <mxPoint x="628" y="535" as="sourcePoint" />
            <mxPoint x="678" y="485" as="targetPoint" />
          </mxGeometry>
        </mxCell>
      </root>
    </mxGraphModel>
  </diagram>
</mxfile>
